<mxfile host="app.diagrams.net" modified="2020-11-08T02:56:15.653Z" agent="5.0 (Windows NT 10.0; Win64; x64) AppleWebKit/537.36 (KHTML, like Gecko) Chrome/86.0.4240.183 Safari/537.36" etag="33QrSzFLKaZME91-TXOE" version="13.9.2" type="github" pages="2">
  <diagram id="6LbbxWErWVtMhvHk_Kt1" name="Page-1">
    <mxGraphModel dx="1038" dy="548" grid="1" gridSize="10" guides="1" tooltips="1" connect="1" arrows="1" fold="1" page="1" pageScale="1" pageWidth="850" pageHeight="1100" math="0" shadow="0">
      <root>
        <mxCell id="0" />
        <mxCell id="1" parent="0" />
        <mxCell id="E9K9l2GJ59DeIypdt7G6-5" value="Tunjangan" style="swimlane;fontStyle=1;align=center;verticalAlign=top;childLayout=stackLayout;horizontal=1;startSize=26;horizontalStack=0;resizeParent=1;resizeParentMax=0;resizeLast=0;collapsible=1;marginBottom=0;" vertex="1" parent="1">
          <mxGeometry x="30" y="20" width="230" height="198" as="geometry" />
        </mxCell>
        <mxCell id="E9K9l2GJ59DeIypdt7G6-6" value="+status: String&#xa;+gaji: double&#xa;+tunjangan: double" style="text;strokeColor=none;fillColor=none;align=left;verticalAlign=top;spacingLeft=4;spacingRight=4;overflow=hidden;rotatable=0;points=[[0,0.5],[1,0.5]];portConstraint=eastwest;" vertex="1" parent="E9K9l2GJ59DeIypdt7G6-5">
          <mxGeometry y="26" width="230" height="74" as="geometry" />
        </mxCell>
        <mxCell id="E9K9l2GJ59DeIypdt7G6-7" value="" style="line;strokeWidth=1;fillColor=none;align=left;verticalAlign=middle;spacingTop=-1;spacingLeft=3;spacingRight=3;rotatable=0;labelPosition=right;points=[];portConstraint=eastwest;" vertex="1" parent="E9K9l2GJ59DeIypdt7G6-5">
          <mxGeometry y="100" width="230" height="8" as="geometry" />
        </mxCell>
        <mxCell id="E9K9l2GJ59DeIypdt7G6-8" value="+inputData():void&#xa;+cekStatus():void&#xa;+hitungTunjangan(gaji:double):double&#xa;+tampilFormat():void" style="text;strokeColor=none;fillColor=none;align=left;verticalAlign=top;spacingLeft=4;spacingRight=4;overflow=hidden;rotatable=0;points=[[0,0.5],[1,0.5]];portConstraint=eastwest;" vertex="1" parent="E9K9l2GJ59DeIypdt7G6-5">
          <mxGeometry y="108" width="230" height="90" as="geometry" />
        </mxCell>
      </root>
    </mxGraphModel>
  </diagram>
  <diagram id="WqoFgrmmrssWKrTeGPna" name="Page-2">
    <mxGraphModel dx="1038" dy="548" grid="1" gridSize="10" guides="1" tooltips="1" connect="1" arrows="1" fold="1" page="1" pageScale="1" pageWidth="850" pageHeight="1100" math="0" shadow="0">
      <root>
        <mxCell id="y0KtNz-fItdbNPR6xq3m-0" />
        <mxCell id="y0KtNz-fItdbNPR6xq3m-1" parent="y0KtNz-fItdbNPR6xq3m-0" />
        <mxCell id="y0KtNz-fItdbNPR6xq3m-2" value="NilaiTerbesardanTerkecil" style="swimlane;fontStyle=1;align=center;verticalAlign=top;childLayout=stackLayout;horizontal=1;startSize=26;horizontalStack=0;resizeParent=1;resizeParentMax=0;resizeLast=0;collapsible=1;marginBottom=0;" vertex="1" parent="y0KtNz-fItdbNPR6xq3m-1">
          <mxGeometry x="30" y="20" width="240" height="220" as="geometry" />
        </mxCell>
        <mxCell id="y0KtNz-fItdbNPR6xq3m-3" value="- scanner: Scanner&#xa;- namaPetugas : string&#xa;- banyakNilaiMahasiswa: int&#xa;- nilaiMahasiswa: int&#xa;- nilaiTerkceil: int&#xa;- nilaiTerbesar:int" style="text;strokeColor=none;fillColor=none;align=left;verticalAlign=top;spacingLeft=4;spacingRight=4;overflow=hidden;rotatable=0;points=[[0,0.5],[1,0.5]];portConstraint=eastwest;" vertex="1" parent="y0KtNz-fItdbNPR6xq3m-2">
          <mxGeometry y="26" width="240" height="104" as="geometry" />
        </mxCell>
        <mxCell id="y0KtNz-fItdbNPR6xq3m-4" value="" style="line;strokeWidth=1;fillColor=none;align=left;verticalAlign=middle;spacingTop=-1;spacingLeft=3;spacingRight=3;rotatable=0;labelPosition=right;points=[];portConstraint=eastwest;" vertex="1" parent="y0KtNz-fItdbNPR6xq3m-2">
          <mxGeometry y="130" width="240" height="8" as="geometry" />
        </mxCell>
        <mxCell id="y0KtNz-fItdbNPR6xq3m-5" value="- inputNamaMhs(): String&#xa;- inputNilaiMhs():int&#xa;- cekNilaiTerbesarTerkecil():void&#xa;+ tampilNilaiMhs():void" style="text;strokeColor=none;fillColor=none;align=left;verticalAlign=top;spacingLeft=4;spacingRight=4;overflow=hidden;rotatable=0;points=[[0,0.5],[1,0.5]];portConstraint=eastwest;" vertex="1" parent="y0KtNz-fItdbNPR6xq3m-2">
          <mxGeometry y="138" width="240" height="82" as="geometry" />
        </mxCell>
      </root>
    </mxGraphModel>
  </diagram>
</mxfile>
